<svg width="151" height="151" viewBox="0 0 151 151" fill="none" xmlns="http://www.w3.org/2000/svg">
<path fill-rule="evenodd" clip-rule="evenodd" d="M134.588 62.3414C135.573 66.6796 136.095 71.1943 136.095 75.8267C136.095 109.305 108.911 136.488 75.4334 136.488C41.9554 136.488 14.7716 109.305 14.7716 75.8267C14.7716 42.3487 41.9554 15.1649 75.4334 15.1649C80.0657 15.1649 84.5804 15.687 88.9187 16.6723C91.8819 17.3487 94.8451 15.4811 95.5142 12.5179C96.1907 9.54726 94.3304 6.59138 91.3598 5.91491C86.2348 4.75315 80.904 4.1355 75.4334 4.1355C35.8672 4.1355 3.74219 36.2605 3.74219 75.8267C3.74219 115.393 35.8672 147.518 75.4334 147.518C115 147.518 147.125 115.393 147.125 75.8267C147.125 70.3561 146.507 65.0252 145.345 59.9002C144.669 56.9296 141.713 55.0693 138.742 55.7458C135.779 56.4149 133.911 59.3782 134.588 62.3414Z" fill="#7856FF"/>
<path fill-rule="evenodd" clip-rule="evenodd" d="M106.682 75.8265C106.682 93.0765 92.6818 107.077 75.4318 107.077C58.1818 107.077 44.1818 93.0765 44.1818 75.8265C44.1818 58.5765 58.1818 44.5765 75.4318 44.5765C78.4759 44.5765 80.9465 42.1059 80.9465 39.0618C80.9465 36.0177 78.4759 33.5471 75.4318 33.5471C52.0935 33.5471 33.1523 52.4883 33.1523 75.8265C33.1523 99.1648 52.0935 118.106 75.4318 118.106C98.77 118.106 117.711 99.1648 117.711 75.8265C117.711 72.7824 115.241 70.3118 112.196 70.3118C109.152 70.3118 106.682 72.7824 106.682 75.8265Z" fill="#7856FF"/>
<path fill-rule="evenodd" clip-rule="evenodd" d="M95.1841 48.2752L79.7576 63.7017C78.4046 63.2238 76.9488 62.9591 75.4341 62.9591C68.3311 62.9591 62.5664 68.7238 62.5664 75.8267C62.5664 82.9297 68.3311 88.6944 75.4341 88.6944C82.537 88.6944 88.3017 82.9297 88.3017 75.8267C88.3017 74.312 88.037 72.8561 87.5591 71.5032L102.986 56.0767L118.471 59.1722C120.28 59.5399 122.147 58.9737 123.449 57.6649L145.508 35.6061C146.765 34.3561 147.338 32.5767 147.052 30.8267C146.772 29.0767 145.662 27.5693 144.074 26.7752L131.015 20.2458L124.486 7.18695C123.691 5.59871 122.184 4.48842 120.434 4.209C118.684 3.92224 116.905 4.49577 115.655 5.75312L93.5958 27.8119C92.287 29.1134 91.7208 30.9811 92.0885 32.7899L95.1841 48.2752ZM118.044 18.959L121.971 26.8193C122.508 27.8928 123.368 28.7531 124.441 29.2899L132.302 33.2164L117.736 47.7825L105.853 45.4075L103.478 33.5252L118.044 18.959Z" fill="#7856FF"/>
</svg>
