<svg width="151" height="151" viewBox="0 0 151 151" fill="none" xmlns="http://www.w3.org/2000/svg">
<path d="M82.3223 71.7029H67.9451C61.1898 71.7103 54.7133 74.3971 49.9365 79.1737C45.1597 83.9503 42.4726 90.4267 42.4648 97.1819V111.577C42.4669 113.415 43.1978 115.177 44.4973 116.477C45.7968 117.776 47.5587 118.507 49.3965 118.509H100.87C102.708 118.507 104.469 117.776 105.769 116.477C107.068 115.177 107.799 113.415 107.801 111.577V97.1819C107.794 90.4268 105.107 83.9506 100.33 79.174C95.5537 74.3975 89.0774 71.7106 82.3223 71.7029ZM98.4265 109.134H51.8398V97.1819C51.8448 92.9122 53.5432 88.8187 56.5625 85.7997C59.5818 82.7806 63.6754 81.0825 67.9451 81.0779H82.3223C86.5919 81.0827 90.6852 82.781 93.7043 85.8C96.7233 88.8191 98.4216 92.9124 98.4265 97.1819V109.134Z" fill="#7856FF"/>
<path d="M75.133 65.3914C79.3062 65.391 83.3855 64.1531 86.8551 61.8343C90.3248 59.5155 93.0289 56.2199 94.6255 52.3642C96.2221 48.5085 96.6395 44.266 95.8249 40.1731C95.0103 36.0802 93.0004 32.3208 90.0492 29.3703C87.098 26.4197 83.3381 24.4106 79.245 23.5969C75.152 22.7832 70.9095 23.2015 67.0542 24.799C63.1989 26.3964 59.9039 29.1012 57.5858 32.5714C55.2677 36.0415 54.0307 40.1211 54.0313 44.2943C54.0376 49.8884 56.263 55.2516 60.2191 59.2068C64.1752 63.162 69.5389 65.3863 75.133 65.3914ZM75.133 32.5669C77.4518 32.5673 79.7183 33.2552 81.6461 34.5437C83.5739 35.8321 85.0764 37.6633 85.9636 39.8056C86.8508 41.9479 87.0828 44.3052 86.6304 46.5793C86.178 48.8535 85.0614 50.9425 83.4219 52.5821C81.7823 54.2218 79.6934 55.3385 77.4192 55.791C75.1451 56.2435 72.7878 56.0116 70.6455 55.1245C68.5031 54.2374 66.6719 52.735 65.3833 50.8073C64.0948 48.8795 63.4068 46.613 63.4062 44.2943C63.4091 41.1849 64.6455 38.2038 66.8441 36.0051C69.0426 33.8065 72.0237 32.5699 75.133 32.5669Z" fill="#7856FF"/>
<path d="M23.4996 97.571H33.1321C34.3753 97.571 35.5676 97.0772 36.4466 96.1981C37.3257 95.319 37.8196 94.1267 37.8196 92.8835C37.8196 91.6403 37.3257 90.4481 36.4466 89.569C35.5676 88.6899 34.3753 88.196 33.1321 88.196H23.4996C17.7084 88.2025 12.1562 90.506 8.06119 94.601C3.96618 98.696 1.66274 104.248 1.65625 110.039V121.922C1.65822 123.656 2.3478 125.318 3.57371 126.544C4.79961 127.77 6.46173 128.46 8.19541 128.461H33.1321C34.3753 128.461 35.5676 127.968 36.4466 127.089C37.3257 126.209 37.8196 125.017 37.8196 123.774C37.8196 122.531 37.3257 121.338 36.4466 120.459C35.5676 119.58 34.3753 119.086 33.1321 119.086H11.0312V110.039C11.0349 106.734 12.3497 103.564 14.6872 101.227C17.0247 98.8895 20.1939 97.5747 23.4996 97.571Z" fill="#7856FF"/>
<path d="M29.4316 81.2986C33.3332 81.2982 37.147 80.1409 40.3908 77.973C43.6346 75.805 46.1626 72.7239 47.6553 69.1191C49.148 65.5144 49.5382 61.548 48.7766 57.7215C48.015 53.895 46.1358 50.3803 43.3767 47.6218C40.6175 44.8633 37.1024 42.985 33.2757 42.2243C29.449 41.4636 25.4827 41.8547 21.8783 43.3482C18.274 44.8417 15.1934 47.3705 13.0262 50.6148C10.8591 53.8591 9.70262 57.6732 9.70313 61.5748C9.7091 66.8048 11.7897 71.8189 15.4884 75.5167C19.187 79.2145 24.2016 81.2939 29.4316 81.2986ZM29.4316 51.2207C31.4788 51.2211 33.4798 51.8285 35.1818 52.9661C36.8837 54.1036 38.2102 55.7203 38.9934 57.6117C39.7767 59.503 39.9815 61.5842 39.5821 63.592C39.1827 65.5997 38.1969 67.444 36.7494 68.8916C35.3019 70.3392 33.4576 71.325 31.4499 71.7246C29.4421 72.1241 27.361 71.9194 25.4696 71.1362C23.5782 70.3531 21.9614 69.0267 20.8238 67.3248C19.6861 65.6229 19.0786 63.6219 19.0781 61.5748C19.0806 58.8295 20.1722 56.1974 22.1133 54.2562C24.0544 52.315 26.6864 51.2233 29.4316 51.2207Z" fill="#7856FF"/>
<path d="M126.766 88.196H116.711C115.468 88.196 114.275 88.6899 113.396 89.569C112.517 90.4481 112.023 91.6403 112.023 92.8835C112.023 94.1267 112.517 95.319 113.396 96.1981C114.275 97.0772 115.468 97.571 116.711 97.571H126.766C130.071 97.5747 133.241 98.8895 135.578 101.227C137.916 103.564 139.23 106.734 139.234 110.039V119.086H116.711C115.468 119.086 114.275 119.58 113.396 120.459C112.517 121.338 112.023 122.531 112.023 123.774C112.023 125.017 112.517 126.209 113.396 127.089C114.275 127.968 115.468 128.461 116.711 128.461H142.07C143.804 128.46 145.466 127.77 146.692 126.544C147.918 125.318 148.607 123.656 148.609 121.922V110.039C148.603 104.248 146.299 98.696 142.204 94.601C138.109 90.506 132.557 88.2025 126.766 88.196Z" fill="#7856FF"/>
<path d="M120.838 81.2986C124.739 81.2982 128.553 80.1409 131.797 77.973C135.041 75.805 137.569 72.7239 139.062 69.1191C140.554 65.5144 140.944 61.548 140.183 57.7215C139.421 53.895 137.542 50.3803 134.783 47.6218C132.024 44.8633 128.509 42.985 124.682 42.2243C120.855 41.4636 116.889 41.8547 113.285 43.3482C109.68 44.8417 106.6 47.3705 104.432 50.6148C102.265 53.8591 101.109 57.6732 101.109 61.5748C101.115 66.8048 103.196 71.8189 106.895 75.5167C110.593 79.2145 115.608 81.2939 120.838 81.2986ZM120.838 51.2207C122.885 51.2211 124.886 51.8285 126.588 52.9661C128.29 54.1036 129.616 55.7203 130.4 57.6117C131.183 59.503 131.388 61.5842 130.988 63.592C130.589 65.5997 129.603 67.444 128.156 68.8916C126.708 70.3392 124.864 71.325 122.856 71.7246C120.848 72.1241 118.767 71.9194 116.876 71.1362C114.984 70.3531 113.368 69.0267 112.23 67.3248C111.092 65.6229 110.485 63.6219 110.484 61.5748C110.487 58.8295 111.578 56.1974 113.52 54.2562C115.461 52.315 118.093 51.2233 120.838 51.2207Z" fill="#7856FF"/>
</svg>
