<svg width="166" height="151" viewBox="0 0 166 151" fill="none" xmlns="http://www.w3.org/2000/svg">
<path d="M144.609 67.6346C142.339 67.6346 140.496 69.4687 140.496 71.7285V118.088L107.595 131.188V88.1041C107.595 85.8443 105.753 84.0102 103.483 84.0102C101.212 84.0102 99.3699 85.8443 99.3699 88.1041V131.18L66.4688 118.08V53.216L85.5268 60.806C87.6078 61.6412 90.026 60.6259 90.8732 58.5216C91.7204 56.4256 90.6923 54.0429 88.5784 53.1996L63.9601 43.3906C63.9601 43.3906 63.9601 43.3906 63.9519 43.3906L63.8861 43.366C62.9073 42.973 61.8133 42.973 60.8345 43.366L60.7605 43.3906C60.7605 43.3906 60.7605 43.3906 60.7523 43.3906L19.6999 59.7416C18.1453 60.3639 17.1172 61.8622 17.1172 63.5407V137.231C17.1172 138.59 17.7999 139.859 18.9267 140.621C19.6177 141.087 20.4155 141.325 21.2298 141.325C21.748 141.325 22.2662 141.226 22.7597 141.03L62.3562 125.268L101.879 141.005C101.879 141.005 101.879 141.005 101.887 141.005L101.961 141.038C102.94 141.431 104.034 141.431 105.012 141.038L105.086 141.005C105.086 141.005 105.086 141.005 105.095 141.005L146.147 124.663C147.693 124.032 148.722 122.534 148.722 120.855V71.7285C148.722 69.4687 146.879 67.6346 144.609 67.6346ZM58.2436 118.08L25.3425 131.18V66.3082L58.2436 53.2078V118.08Z" fill="#7856FF"/>
<path d="M119.928 26.6956C113.125 26.6956 107.59 32.2059 107.59 38.9772C107.59 45.7485 113.125 51.2589 119.928 51.2589C126.73 51.2589 132.266 45.7485 132.266 38.9772C132.266 32.2059 126.73 26.6956 119.928 26.6956ZM119.928 43.0711C117.658 43.0711 115.815 41.2371 115.815 38.9772C115.815 36.7174 117.658 34.8833 119.928 34.8833C122.198 34.8833 124.04 36.7174 124.04 38.9772C124.04 41.2371 122.198 43.0711 119.928 43.0711Z" fill="#7856FF"/>
<path d="M119.941 10.3203C104.066 10.3203 91.1523 23.1751 91.1523 38.9776C91.1523 53.6828 114.249 79.7281 116.881 82.6512C117.662 83.5109 118.773 84.0104 119.941 84.0104C121.109 84.0104 122.219 83.5109 123.001 82.6512C125.633 79.7281 148.729 53.6828 148.729 38.9776C148.729 23.1751 135.816 10.3203 119.941 10.3203ZM119.941 73.6692C110.959 63.066 99.3776 46.7887 99.3776 38.9776C99.3776 27.6948 108.606 18.5081 119.941 18.5081C131.275 18.5081 140.504 27.6948 140.504 38.9776C140.504 46.7805 128.923 63.066 119.941 73.6692Z" fill="#7856FF"/>
</svg>
