<svg width="52" height="52" viewBox="0 0 52 52" fill="none" xmlns="http://www.w3.org/2000/svg">
<circle cx="26" cy="26" r="26" fill="#2F80ED"/>
<path d="M30.4906 34.1006C30.35 34.1006 30.2103 34.059 30.0905 33.9777L25.5646 30.9077L23.1371 32.6544C22.9467 32.7913 22.7014 32.8258 22.4803 32.7467C22.2595 32.6675 22.0918 32.4846 22.032 32.2578L20.8131 27.6387L16.458 25.9735C16.1838 25.8686 16.002 25.6063 16 25.3127C15.998 25.0192 16.1762 24.7544 16.4491 24.6458L33.0088 18.0566C33.084 18.0247 33.1635 18.0062 33.2437 18.0013C33.2724 17.9996 33.3011 17.9996 33.3297 18.0012C33.4958 18.0111 33.6589 18.0787 33.7862 18.2036C33.7994 18.2165 33.812 18.2297 33.8238 18.2435C33.9293 18.3639 33.9872 18.5108 33.9982 18.6604C34.0008 18.698 34.0006 18.7361 33.9973 18.7742C33.995 18.8014 33.9911 18.8285 33.9856 18.8553L31.1904 33.5214C31.1455 33.757 30.9851 33.9543 30.7636 34.0461C30.6757 34.0826 30.5829 34.1006 30.4906 34.1006ZM25.962 29.4553L29.9935 32.1899L32.1685 20.7781L24.3131 28.3369L25.943 29.4425C25.9495 29.4466 25.9558 29.451 25.962 29.4553ZM22.6059 28.8472L23.1457 30.8926L24.3087 30.0557L22.7858 29.0227C22.715 28.9748 22.6544 28.9152 22.6059 28.8472ZM18.673 25.2946L21.6634 26.4379C21.8776 26.5198 22.0393 26.6999 22.0978 26.9217L22.4771 28.3589C22.4944 28.1931 22.5696 28.0372 22.6917 27.9196L30.1767 20.7173L18.673 25.2946Z" fill="white"/>
</svg>
