<svg width="52" height="52" viewBox="0 0 52 52" fill="none" xmlns="http://www.w3.org/2000/svg">
<circle cx="26" cy="26" r="26" fill="#7856FF"/>
<path d="M32.2008 26.8333C32.0175 26.8333 31.8258 26.775 31.6425 26.7333C31.2712 26.6515 30.9064 26.5429 30.5508 26.4083C30.1642 26.2677 29.7393 26.275 29.3577 26.4288C28.9762 26.5827 28.6651 26.8722 28.4841 27.2416L28.3008 27.6166C27.4892 27.1651 26.7433 26.6043 26.0842 25.95C25.4298 25.2908 24.869 24.545 24.4175 23.7333L24.7675 23.5C25.137 23.3191 25.4265 23.0079 25.5803 22.6264C25.7342 22.2448 25.7415 21.8199 25.6008 21.4333C25.4685 21.077 25.3599 20.7123 25.2758 20.3416C25.2341 20.1583 25.2008 19.9666 25.1758 19.775C25.0746 19.188 24.7672 18.6564 24.3088 18.276C23.8505 17.8956 23.2714 17.6913 22.6758 17.7H20.1758C19.8167 17.6966 19.461 17.7706 19.1331 17.9171C18.8051 18.0635 18.5126 18.2789 18.2753 18.5485C18.0381 18.8182 17.8618 19.1358 17.7583 19.4797C17.6549 19.8237 17.6267 20.1859 17.6758 20.5416C18.1198 24.0328 19.7142 27.2765 22.2072 29.7605C24.7002 32.2445 27.9497 33.8271 31.4425 34.2583H31.7591C32.3737 34.2592 32.967 34.0337 33.4258 33.625C33.6895 33.3892 33.9001 33.1001 34.0437 32.7769C34.1874 32.4537 34.2608 32.1037 34.2591 31.75V29.25C34.2489 28.6711 34.0382 28.1138 33.6628 27.673C33.2874 27.2323 32.7707 26.9355 32.2008 26.8333ZM32.6175 31.8333C32.6173 31.9516 32.592 32.0686 32.5431 32.1763C32.4943 32.2841 32.423 32.3802 32.3342 32.4583C32.2413 32.5391 32.1325 32.5995 32.0147 32.6354C31.897 32.6713 31.773 32.6819 31.6508 32.6666C28.5299 32.2665 25.631 30.8387 23.4114 28.6085C21.1918 26.3784 19.7778 23.4728 19.3925 20.35C19.3792 20.2279 19.3908 20.1044 19.4267 19.987C19.4625 19.8695 19.5217 19.7605 19.6008 19.6666C19.6789 19.5777 19.775 19.5065 19.8828 19.4577C19.9906 19.4088 20.1075 19.3835 20.2258 19.3833H22.7258C22.9196 19.379 23.1088 19.4424 23.2609 19.5625C23.413 19.6827 23.5185 19.8521 23.5591 20.0416C23.5925 20.2694 23.6341 20.4944 23.6841 20.7166C23.7804 21.1559 23.9085 21.5876 24.0675 22.0083L22.9008 22.55C22.8011 22.5957 22.7113 22.6608 22.6368 22.7413C22.5622 22.8218 22.5043 22.9163 22.4664 23.0193C22.4284 23.1223 22.4112 23.2317 22.4157 23.3414C22.4202 23.4511 22.4463 23.5588 22.4925 23.6583C23.6918 26.2273 25.7569 28.2923 28.3258 29.4916C28.5287 29.575 28.7563 29.575 28.9592 29.4916C29.0631 29.4545 29.1586 29.397 29.2401 29.3226C29.3217 29.2482 29.3876 29.1584 29.4342 29.0583L29.9508 27.8916C30.3816 28.0457 30.8213 28.1737 31.2675 28.275C31.4897 28.325 31.7147 28.3666 31.9425 28.4C32.132 28.4406 32.3014 28.5461 32.4216 28.6982C32.5417 28.8503 32.6051 29.0395 32.6008 29.2333L32.6175 31.8333Z" fill="white"/>
</svg>
