<svg width="52" height="52" viewBox="0 0 52 52" fill="none" xmlns="http://www.w3.org/2000/svg">
<circle cx="26" cy="26" r="26" fill="#5FBC74"/>
<path d="M32.3401 19.6139C30.6476 17.9293 28.396 17.001 25.9996 17C23.6086 17 21.3534 17.9275 19.6497 19.6117C17.943 21.2988 17.0022 23.5408 17 25.9166V25.921C17.0003 27.359 17.3784 28.8096 18.0963 30.1337L17.0246 35L21.9516 33.8804C23.1995 34.5086 24.5918 34.8399 25.9962 34.8404H25.9997C28.3903 34.8404 30.6455 33.9128 32.3495 32.2284C34.0577 30.54 34.9989 28.3008 35 25.9235C35.0007 23.563 34.0562 21.3222 32.3401 19.6139ZM25.9996 33.4355H25.9964C24.7355 33.435 23.4861 33.1187 22.3835 32.5207L22.1505 32.3943L18.8743 33.1388L19.5859 29.9077L19.4487 29.6714C18.7667 28.4962 18.4062 27.199 18.4062 25.9195C18.4088 21.7781 21.8149 18.4049 25.9993 18.4049C28.0208 18.4057 29.9203 19.1886 31.3477 20.6091C32.7966 22.0517 33.5943 23.9388 33.5936 25.9231C33.592 30.0655 30.1853 33.4355 25.9996 33.4355Z" fill="white"/>
<path d="M23.5507 21.9874H23.1562C23.0189 21.9874 22.7959 22.0387 22.6073 22.2438C22.4186 22.4489 21.8867 22.9448 21.8867 23.9534C21.8867 24.9619 22.6245 25.9364 22.7273 26.0733C22.8303 26.2101 24.1514 28.3459 26.2439 29.1675C27.9829 29.8503 28.3368 29.7145 28.7142 29.6803C29.0916 29.6462 29.9322 29.1845 30.1038 28.7059C30.2753 28.2273 30.2753 27.817 30.2239 27.7313C30.1724 27.6459 30.035 27.5947 29.8293 27.4922C29.6233 27.3896 28.6144 26.8854 28.4256 26.8168C28.2369 26.7486 28.0997 26.7144 27.9624 26.9197C27.8251 27.1246 27.4208 27.5986 27.3007 27.7354C27.1807 27.8723 27.0605 27.8895 26.8546 27.7869C26.6487 27.6841 25.9924 27.4638 25.206 26.7656C24.5939 26.2222 24.1692 25.5292 24.049 25.3241C23.929 25.119 24.0362 25.0081 24.1395 24.9058C24.232 24.814 24.3569 24.6885 24.4599 24.5689C24.5627 24.4491 24.592 24.3637 24.6607 24.2269C24.7293 24.0902 24.6949 23.9704 24.6435 23.868C24.592 23.7654 24.1969 22.7518 24.0138 22.3464C23.8596 22.005 23.6974 21.9934 23.5507 21.9874Z" fill="white"/>
</svg>
