<svg width="180" height="30" viewBox="0 0 180 30" fill="none" xmlns="http://www.w3.org/2000/svg">
<g clip-path="url(#clip0_685_3699)">
<path d="M174.957 13.0062L171.737 20.8L168.481 13.0062H163.938V23.7H166.728V15.6525L170.235 23.7H173.204L176.71 15.58V23.7H179.501V13.0062H174.957Z" fill="white"/>
<path d="M157.388 13.0062L154.132 20.8L150.876 13.0062H146.332V23.7H149.159V15.6525L152.629 23.7H155.634L159.105 15.58V23.7H161.931V13.0062H157.388Z" fill="white"/>
<path d="M142.182 23.7H145.33L140.464 13.0425H136.6L131.734 23.7H134.883L135.777 21.6337H141.287L142.182 23.7ZM136.815 19.2775L138.568 15.2537L140.285 19.2775H136.815Z" fill="white"/>
<path d="M132.166 14.7825C131.808 14.2387 131.343 13.8037 130.663 13.4775C130.019 13.1875 129.268 13.0062 128.373 13.0062H122.398V23.7H125.332V20.4012H128.373C129.268 20.4012 130.019 20.2562 130.663 19.93C131.307 19.64 131.808 19.205 132.166 18.6612C132.524 18.1175 132.667 17.465 132.667 16.74C132.667 15.9787 132.488 15.3262 132.166 14.7825ZM129.304 17.6825C129.053 17.9 128.66 18.0087 128.195 18.0087H125.332V15.3625H128.195C128.66 15.3625 129.053 15.4712 129.304 15.725C129.554 15.9425 129.697 16.2687 129.697 16.7037C129.697 17.1025 129.554 17.4287 129.304 17.6825Z" fill="white"/>
<path d="M121.11 13.0062H112.988V23.7H115.958V15.6525H121.11V13.0062Z" fill="white"/>
<path d="M105.153 23.9175C103.901 23.9175 102.792 23.7 101.826 23.2288C100.86 22.7575 100.144 22.105 99.6074 21.2713C99.0708 20.4375 98.8203 19.4588 98.8203 18.3713C98.8203 17.2475 99.0708 16.305 99.6074 15.4713C100.144 14.6375 100.86 13.985 101.826 13.5138C102.792 13.0425 103.901 12.825 105.153 12.825C106.405 12.825 107.55 13.0425 108.481 13.5138C109.411 13.985 110.162 14.6375 110.699 15.4713C111.235 16.305 111.486 17.2838 111.486 18.3713C111.486 19.495 111.235 20.4375 110.699 21.2713C110.162 22.105 109.447 22.7575 108.481 23.2288C107.514 23.7 106.405 23.9175 105.153 23.9175ZM105.153 21.2713C105.833 21.2713 106.441 21.1625 106.942 20.9088C107.443 20.655 107.837 20.3288 108.087 19.8938C108.373 19.4588 108.516 18.9513 108.516 18.335C108.516 17.7188 108.373 17.2113 108.087 16.7763C107.837 16.3413 107.443 16.015 106.942 15.7613C106.441 15.5075 105.833 15.3988 105.153 15.3988C104.473 15.3988 103.865 15.5075 103.364 15.7613C102.863 16.015 102.47 16.3413 102.184 16.7763C101.897 17.2113 101.754 17.7188 101.754 18.335C101.754 18.9513 101.897 19.4588 102.184 19.8938C102.47 20.3288 102.863 20.655 103.364 20.9088C103.865 21.1625 104.473 21.2713 105.153 21.2713Z" fill="white"/>
<path d="M97.4941 14.7825C97.1363 14.2387 96.6712 13.8037 95.9914 13.4775C95.3474 13.1875 94.596 13.0062 93.7016 13.0062H87.7266V23.7H90.6604V20.4012H93.7016C94.596 20.4012 95.3474 20.2562 95.9914 19.93C96.6354 19.64 97.1363 19.205 97.4941 18.6612C97.8519 18.1175 97.995 17.465 97.995 16.74C97.995 15.9787 97.8161 15.3262 97.4941 14.7825ZM94.6318 17.6825C94.3814 17.9 93.9878 18.0087 93.5227 18.0087H90.6604V15.3625H93.5227C93.9878 15.3625 94.3814 15.4712 94.6318 15.725C94.8823 15.9425 95.0254 16.2687 95.0254 16.7037C95.0254 17.1025 94.8823 17.4287 94.6318 17.6825Z" fill="white"/>
<path d="M74.418 13.0062V23.7H77.3876V15.6525H82.7901V23.7H85.724V13.0062H74.418Z" fill="white"/>
<path d="M67.6578 21.09V13.0062H57.2462C57.3178 13.6225 57.3536 14.2025 57.3893 14.7825C57.4251 15.3625 57.4609 15.9062 57.4609 16.4137C57.4609 17.5375 57.3536 18.5162 57.1747 19.2775C56.9958 20.0387 56.7453 20.6187 56.3518 21.0537H54.9922V25.8025H57.7471V23.7H66.6918V25.8387H69.4467V21.09H67.6578ZM60.1443 15.87C60.1443 15.7612 60.1443 15.6887 60.1443 15.58H64.7239V21.09H59.3929C59.6076 20.7637 59.7865 20.3287 59.8938 19.8212C60.1085 19.06 60.1801 18.1175 60.1801 17.03C60.1801 16.6675 60.1801 16.305 60.1443 15.87Z" fill="white"/>
<path d="M52.8816 13.0062L49.7331 18.5525L46.5488 13.0062H43.293L48.0873 21.3437L46.7277 23.7H49.9478L56.0659 13.0062H52.8816Z" fill="white"/>
<path d="M42.9694 13.0062H34.8477V23.7H37.7815V15.6525H42.9694V13.0062Z" fill="white"/>
<path d="M29.1209 0.5H6.22266V6.3H23.3964V23.7H29.1209V0.5Z" fill="white"/>
<path d="M6.22457 17.9H0.5V29.5H11.9491V23.7H6.22457V17.9Z" fill="#FF5500"/>
</g>
<defs>
<clipPath id="clip0_685_3699">
<rect width="179" height="29" fill="white" transform="translate(0.5 0.5)"/>
</clipPath>
</defs>
</svg>
