<svg width="57" height="14" viewBox="0 0 57 14" fill="none" xmlns="http://www.w3.org/2000/svg">
<path fill-rule="evenodd" clip-rule="evenodd" d="M36.9049 7.88511C36.9381 8.10511 36.9547 8.27434 37.0045 8.44357C37.3694 10.0174 38.5803 11.0666 40.1561 11.202C41.5495 11.3205 42.6443 10.779 43.4571 9.61126C43.8552 9.0528 44.5021 8.95126 45.0163 9.40818C45.3149 9.66203 45.3481 10.0005 45.1158 10.322C44.9831 10.4913 44.867 10.6605 44.7343 10.8466C44.2035 11.5913 43.5068 12.099 42.6443 12.4036C41.2509 12.8943 39.8576 12.962 38.4808 12.4374C36.623 11.7436 35.5282 10.3559 35.213 8.37588C35.0305 7.15742 35.1466 5.93895 35.694 4.83895C36.4902 3.26511 37.7343 2.30049 39.4594 2.0128C40.604 1.82665 41.732 1.94511 42.7936 2.46972C44.3031 3.19742 45.2154 4.4328 45.5637 6.07434C45.6632 6.53126 45.6964 6.98818 45.7296 7.44511C45.7628 7.7328 45.6301 7.85126 45.3481 7.86819C45.2154 7.86819 45.0993 7.86819 44.9666 7.86819C42.3955 7.86819 39.8244 7.86819 37.2699 7.86819C37.1538 7.88511 37.0708 7.88511 36.9049 7.88511ZM43.9215 6.15895C43.7059 4.68665 41.9642 3.40049 40.3552 3.50203C38.6798 3.60357 37.0211 4.90665 36.9547 6.15895C39.2604 6.15895 41.5993 6.15895 43.9215 6.15895Z" fill="#9B9EA0"/>
<path fill-rule="evenodd" clip-rule="evenodd" d="M23.736 7.83471C23.7526 7.98702 23.7692 8.08856 23.7858 8.20702C24.101 9.9501 25.4943 11.1516 27.2194 11.1855C28.5299 11.2024 29.5417 10.6609 30.3048 9.57779C30.7029 9.00241 31.4161 8.93471 31.9138 9.44241C32.146 9.69625 32.1957 10.0009 31.9635 10.3055C31.864 10.4578 31.7645 10.5932 31.6484 10.7116C31.0844 11.5578 30.3048 12.0993 29.3593 12.4209C27.9659 12.8947 26.5725 12.9286 25.2289 12.387C23.3048 11.6255 22.2266 10.1193 21.9943 8.02087C21.8782 7.00548 21.9777 6.02394 22.3924 5.09318C23.2052 3.33317 24.5157 2.2501 26.4232 1.99625C27.4351 1.86087 28.4469 1.94548 29.3758 2.33471C31.0678 3.04548 32.0465 4.38241 32.428 6.19318C32.4943 6.59933 32.5441 7.03933 32.5607 7.44548C32.5773 7.78395 32.5109 7.85164 32.1626 7.85164C31.5654 7.85164 30.9351 7.85164 30.3213 7.85164C28.2645 7.85164 26.2076 7.85164 24.1839 7.85164C24.0346 7.83471 23.9019 7.83471 23.736 7.83471ZM30.7858 6.10856C30.5702 4.65317 28.8782 3.41779 27.2194 3.45164C25.6104 3.48548 23.9351 4.80548 23.8024 6.10856C26.1247 6.10856 28.4303 6.10856 30.7858 6.10856Z" fill="#9B9EA0"/>
<path fill-rule="evenodd" clip-rule="evenodd" d="M52.598 8.61296C52.7307 8.73142 52.797 8.79911 52.8799 8.8668C53.7757 9.64526 54.6714 10.4237 55.5506 11.2022C55.6003 11.253 55.6833 11.3206 55.733 11.3714C56.0648 11.7099 56.098 12.2006 55.7828 12.5391C55.4842 12.8776 55.0198 12.9283 54.6714 12.6406C54.0411 12.116 53.4439 11.5745 52.8302 11.0499C51.951 10.2883 51.0885 9.5268 50.2093 8.76526C50.143 8.69757 50.0435 8.62988 49.9107 8.52834C49.9107 8.71449 49.8942 8.83296 49.8942 8.95142C49.8942 11.1006 49.8942 9.49296 49.8942 11.6422C49.8942 11.7437 49.8942 11.8453 49.8942 11.9468C49.861 12.4206 49.5126 12.7591 49.0482 12.7253C48.6003 12.7083 48.3017 12.3699 48.2852 11.896C48.2852 11.7945 48.2852 11.693 48.2852 11.5914C48.2852 7.34373 48.2852 6.85296 48.2852 2.60526C48.2852 2.46988 48.2852 2.35142 48.2852 2.21603C48.2852 1.91142 48.3183 1.86065 48.6003 1.86065C48.9818 1.84372 49.3634 1.84372 49.7449 1.84372C50.6572 1.84372 51.6027 1.87757 52.515 1.8268C54.0577 1.75911 55.7828 3.02834 55.9487 4.87296C56.098 6.53142 54.9866 8.10526 53.3278 8.44373C53.1122 8.49449 52.88 8.56219 52.598 8.61296ZM49.7946 7.30988C49.8942 7.3268 49.9605 7.3268 50.0103 7.3268C50.7733 7.3268 51.5529 7.3268 52.316 7.3268C52.5316 7.3268 52.7638 7.30988 52.9795 7.22526C53.6927 7.00526 54.2567 6.56526 54.4392 5.7868C54.7544 4.44988 53.7757 3.23142 52.4321 3.23142C51.6359 3.23142 50.8563 3.23142 50.0435 3.23142C49.9439 3.23142 49.861 3.24834 49.7615 3.24834C49.7946 4.60219 49.7946 5.93911 49.7946 7.30988Z" fill="#9B9EA0"/>
<path fill-rule="evenodd" clip-rule="evenodd" d="M17.7634 7.8515C16.2373 7.8515 14.761 7.8515 13.2516 7.8515C13.2516 7.98689 13.235 8.10535 13.235 8.22381C13.235 9.40843 13.235 10.5761 13.235 11.7607C13.235 11.913 13.235 12.0653 13.2018 12.1838C13.0857 12.5392 12.7207 12.7592 12.3724 12.7423C11.9909 12.7084 11.6757 12.4038 11.626 12.0146C11.6094 11.913 11.626 11.8284 11.626 11.7269C11.626 7.51304 11.6094 7.00535 11.6094 2.80843C11.6094 2.6392 11.626 2.46997 11.6757 2.31766C11.8084 1.96227 12.1734 1.7592 12.5549 1.80997C12.9032 1.86074 13.2018 2.16535 13.235 2.53766C13.2516 2.65612 13.235 2.75766 13.235 2.87612C13.235 5.04227 13.2516 3.50227 13.2516 5.66843C13.2516 5.80381 13.2681 5.92227 13.2681 6.04073C13.5501 6.10843 17.4648 6.10843 17.7634 6.04073C17.7634 5.9392 17.78 5.83766 17.78 5.7192C17.78 4.7715 17.78 3.80689 17.78 2.8592C17.78 2.75766 17.78 2.67304 17.78 2.5715C17.8132 2.14843 18.1283 1.82689 18.543 1.80997C18.9577 1.79304 19.3392 2.11458 19.389 2.53766C19.4056 2.6392 19.389 2.72381 19.389 2.82535C19.389 5.78689 19.389 8.7315 19.389 11.693C19.389 11.7946 19.389 11.8792 19.389 11.9807C19.3392 12.4038 18.9743 12.7423 18.5596 12.7254C18.1449 12.7084 17.8132 12.37 17.7634 11.9469C17.7634 11.8453 17.7634 11.7607 17.7634 11.6592C17.7634 10.5253 17.7634 9.35766 17.7634 8.22381C17.7634 8.12227 17.7634 8.00381 17.7634 7.8515Z" fill="#9B9EA0"/>
<path fill-rule="evenodd" clip-rule="evenodd" d="M4.56013 12.8102C3.48193 12.7933 2.47008 12.5564 1.54117 11.981C1.14306 11.744 0.778135 11.4394 0.479557 11.084C0.330268 10.8979 0.147803 10.7117 0.0814527 10.4748C-0.0180733 10.1702 -0.034661 9.83174 0.24733 9.56097C0.562495 9.25635 0.993775 9.13789 1.42505 9.42558C1.83975 9.7302 2.0388 10.1194 2.38714 10.4748C2.88477 10.9825 3.53169 11.2533 4.22837 11.3379C4.87529 11.4056 5.50562 11.3887 6.13595 11.1687C6.38477 11.0671 6.65017 10.9487 6.86581 10.7794C7.26392 10.3225 7.38003 9.67943 6.89899 9.23943C6.66676 9.03635 6.36818 8.88404 6.0696 8.74866C5.33975 8.42712 4.57671 8.20712 3.81368 8.00404C3.18335 7.85174 2.58619 7.64866 1.95586 7.46251C1.72363 7.39481 1.49141 7.25943 1.27577 7.14097C0.695197 6.81943 0.363443 6.31174 0.263917 5.66866C0.0814527 4.33174 0.562495 3.1302 1.70705 2.53789C3.49851 1.64097 5.35633 1.72558 7.1478 2.75789C7.47956 2.94404 7.79472 3.23174 8.07671 3.48558C8.29235 3.67174 8.45823 3.94251 8.54117 4.2302C8.62411 4.58558 8.45823 4.95789 8.02695 5.05943C7.66202 5.14404 7.33027 5.02558 7.06486 4.73789C7.0151 4.68712 6.96534 4.61943 6.93216 4.56866C6.51747 3.92558 5.90373 3.5702 5.17387 3.43481C4.44401 3.29943 3.71415 3.31635 3.01747 3.60404C2.76866 3.70558 2.50325 3.84097 2.3042 4.02712C2.00562 4.43327 1.88951 4.97481 2.28761 5.48251C2.60278 5.78712 2.96771 5.95635 3.36581 6.04097C4.24496 6.26097 5.14069 6.49789 6.01984 6.71789C6.58382 6.8702 7.13122 7.05635 7.64543 7.36097C8.30894 7.71635 8.78998 8.24097 8.95586 9.00251C9.15491 9.93328 8.95586 10.8133 8.24259 11.4902C7.42979 12.2348 6.50088 12.641 5.42269 12.7594C5.12411 12.7933 4.82553 12.7933 4.56013 12.8102Z" fill="#9B9EA0"/>
</svg>
